<svg width="80" height="40" viewBox="0 0 80 40" fill="none" xmlns="http://www.w3.org/2000/svg">
<path d="M5.13537 33.448C5.94604 33.448 6.35137 33.1707 6.35137 32.616C6.35137 32.4453 6.31404 32.3013 6.23937 32.184C6.17004 32.0613 6.07404 31.9573 5.95137 31.872C5.82871 31.7813 5.68737 31.704 5.52737 31.64C5.37271 31.576 5.20737 31.512 5.03137 31.448C4.82871 31.3787 4.63671 31.3013 4.45537 31.216C4.27404 31.1253 4.11671 31.0213 3.98337 30.904C3.85004 30.7813 3.74337 30.6373 3.66337 30.472C3.58871 30.3067 3.55137 30.1067 3.55137 29.872C3.55137 29.3867 3.71671 29.008 4.04737 28.736C4.37804 28.464 4.83404 28.328 5.41537 28.328C5.75137 28.328 6.05537 28.3653 6.32737 28.44C6.60471 28.5093 6.80737 28.5867 6.93537 28.672L6.68737 29.304C6.57537 29.2347 6.40737 29.168 6.18337 29.104C5.96471 29.0347 5.70871 29 5.41537 29C5.26604 29 5.12737 29.016 4.99937 29.048C4.87137 29.08 4.75937 29.128 4.66337 29.192C4.56737 29.256 4.49004 29.3387 4.43137 29.44C4.37804 29.536 4.35137 29.6507 4.35137 29.784C4.35137 29.9333 4.38071 30.0587 4.43937 30.16C4.49804 30.2613 4.58071 30.352 4.68737 30.432C4.79404 30.5067 4.91671 30.576 5.05537 30.64C5.19937 30.704 5.35671 30.768 5.52737 30.832C5.76737 30.928 5.98604 31.024 6.18337 31.12C6.38604 31.216 6.55937 31.3307 6.70337 31.464C6.85271 31.5973 6.96737 31.7573 7.04737 31.944C7.12737 32.1253 7.16737 32.3467 7.16737 32.608C7.16737 33.0933 6.98871 33.4667 6.63137 33.728C6.27937 33.9893 5.78071 34.12 5.13537 34.12C4.91671 34.12 4.71404 34.104 4.52737 34.072C4.34604 34.0453 4.18337 34.0133 4.03937 33.976C3.89537 33.9333 3.77004 33.8907 3.66337 33.848C3.56204 33.8 3.48204 33.76 3.42337 33.728L3.65537 33.088C3.77804 33.1573 3.96471 33.2347 4.21537 33.32C4.46604 33.4053 4.77271 33.448 5.13537 33.448ZM16.5692 34.12C16.2065 34.12 15.8919 34.064 15.6252 33.952C15.3585 33.84 15.1399 33.688 14.9692 33.496C14.7985 33.2987 14.6705 33.0667 14.5852 32.8C14.5052 32.5333 14.4652 32.2453 14.4652 31.936V28.456H15.2412V31.848C15.2412 32.4027 15.3639 32.8053 15.6092 33.056C15.8545 33.3067 16.1745 33.432 16.5692 33.432C16.7665 33.432 16.9452 33.4027 17.1052 33.344C17.2705 33.28 17.4119 33.184 17.5292 33.056C17.6465 32.928 17.7372 32.7653 17.8012 32.568C17.8652 32.3653 17.8972 32.1253 17.8972 31.848V28.456H18.6732V31.936C18.6732 32.2453 18.6305 32.5333 18.5452 32.8C18.4652 33.0667 18.3372 33.2987 18.1612 33.496C17.9905 33.688 17.7719 33.84 17.5052 33.952C17.2439 34.064 16.9319 34.12 16.5692 34.12ZM27.885 28.4C28.6637 28.4 29.261 28.5493 29.677 28.848C30.0983 29.1413 30.309 29.5813 30.309 30.168C30.309 30.488 30.2503 30.7627 30.133 30.992C30.021 31.216 29.8557 31.4 29.637 31.544C29.4237 31.6827 29.1623 31.784 28.853 31.848C28.5437 31.912 28.1943 31.944 27.805 31.944H27.189V34H26.413V28.536C26.6317 28.4827 26.8743 28.448 27.141 28.432C27.413 28.4107 27.661 28.4 27.885 28.4ZM27.949 29.08C27.6183 29.08 27.365 29.088 27.189 29.104V31.28H27.773C28.0397 31.28 28.2797 31.264 28.493 31.232C28.7063 31.1947 28.885 31.136 29.029 31.056C29.1783 30.9707 29.293 30.856 29.373 30.712C29.453 30.568 29.493 30.384 29.493 30.16C29.493 29.9467 29.4503 29.7707 29.365 29.632C29.285 29.4933 29.173 29.384 29.029 29.304C28.8903 29.2187 28.7277 29.16 28.541 29.128C28.3543 29.096 28.157 29.08 27.949 29.08ZM39.1522 28.4C39.9309 28.4 40.5282 28.5493 40.9442 28.848C41.3655 29.1413 41.5762 29.5813 41.5762 30.168C41.5762 30.488 41.5175 30.7627 41.4002 30.992C41.2882 31.216 41.1229 31.4 40.9042 31.544C40.6909 31.6827 40.4295 31.784 40.1202 31.848C39.8109 31.912 39.4615 31.944 39.0722 31.944H38.4562V34H37.6802V28.536C37.8989 28.4827 38.1415 28.448 38.4082 28.432C38.6802 28.4107 38.9282 28.4 39.1522 28.4ZM39.2162 29.08C38.8855 29.08 38.6322 29.088 38.4562 29.104V31.28H39.0402C39.3069 31.28 39.5469 31.264 39.7602 31.232C39.9735 31.1947 40.1522 31.136 40.2962 31.056C40.4455 30.9707 40.5602 30.856 40.6402 30.712C40.7202 30.568 40.7602 30.384 40.7602 30.16C40.7602 29.9467 40.7175 29.7707 40.6322 29.632C40.5522 29.4933 40.4402 29.384 40.2962 29.304C40.1575 29.2187 39.9949 29.16 39.8082 29.128C39.6215 29.096 39.4242 29.08 39.2162 29.08ZM48.7234 31.224C48.7234 30.7493 48.7927 30.3307 48.9314 29.968C49.0754 29.6053 49.2674 29.304 49.5074 29.064C49.7527 28.8187 50.0354 28.6347 50.3554 28.512C50.6807 28.3893 51.0247 28.328 51.3874 28.328C51.7447 28.328 52.0807 28.3893 52.3954 28.512C52.7154 28.6347 52.9954 28.8187 53.2354 29.064C53.4754 29.304 53.6647 29.6053 53.8034 29.968C53.9474 30.3307 54.0194 30.7493 54.0194 31.224C54.0194 31.6987 53.9474 32.1173 53.8034 32.48C53.6647 32.8427 53.4754 33.1467 53.2354 33.392C52.9954 33.632 52.7154 33.8133 52.3954 33.936C52.0807 34.0587 51.7447 34.12 51.3874 34.12C51.0247 34.12 50.6807 34.0587 50.3554 33.936C50.0354 33.8133 49.7527 33.632 49.5074 33.392C49.2674 33.1467 49.0754 32.8427 48.9314 32.48C48.7927 32.1173 48.7234 31.6987 48.7234 31.224ZM49.5394 31.224C49.5394 31.56 49.582 31.8667 49.6674 32.144C49.7527 32.416 49.8727 32.648 50.0274 32.84C50.1874 33.032 50.3794 33.1813 50.6034 33.288C50.8327 33.3893 51.0887 33.44 51.3714 33.44C51.654 33.44 51.9074 33.3893 52.1314 33.288C52.3554 33.1813 52.5447 33.032 52.6994 32.84C52.8594 32.648 52.982 32.416 53.0674 32.144C53.1527 31.8667 53.1954 31.56 53.1954 31.224C53.1954 30.888 53.1527 30.584 53.0674 30.312C52.982 30.0347 52.8594 29.8 52.6994 29.608C52.5447 29.416 52.3554 29.2693 52.1314 29.168C51.9074 29.0613 51.654 29.008 51.3714 29.008C51.0887 29.008 50.8327 29.0613 50.6034 29.168C50.3794 29.2693 50.1874 29.416 50.0274 29.608C49.8727 29.8 49.7527 30.0347 49.6674 30.312C49.582 30.584 49.5394 30.888 49.5394 31.224ZM64.2859 31.68C64.3713 31.7867 64.4779 31.928 64.6059 32.104C64.7393 32.2747 64.8753 32.4667 65.0139 32.68C65.1526 32.888 65.2886 33.1067 65.4219 33.336C65.5606 33.5653 65.6779 33.7867 65.7739 34H64.9259C64.8193 33.7973 64.7019 33.592 64.5739 33.384C64.4513 33.176 64.3259 32.9787 64.1979 32.792C64.0699 32.6 63.9419 32.4213 63.8139 32.256C63.6913 32.0907 63.5793 31.9467 63.4779 31.824C63.4086 31.8293 63.3366 31.832 63.2619 31.832C63.1926 31.832 63.1206 31.832 63.0459 31.832H62.3499V34H61.5739V28.536C61.7926 28.4827 62.0353 28.448 62.3019 28.432C62.5739 28.4107 62.8219 28.4 63.0459 28.4C63.8246 28.4 64.4166 28.5467 64.8219 28.84C65.2326 29.1333 65.4379 29.5707 65.4379 30.152C65.4379 30.52 65.3393 30.8347 65.1419 31.096C64.9499 31.3573 64.6646 31.552 64.2859 31.68ZM63.1099 29.08C62.7793 29.08 62.5259 29.088 62.3499 29.104V31.192H62.9019C63.1686 31.192 63.4086 31.1787 63.6219 31.152C63.8353 31.1253 64.0139 31.0747 64.1579 31C64.3073 30.9253 64.4219 30.8213 64.5019 30.688C64.5819 30.5493 64.6219 30.368 64.6219 30.144C64.6219 29.936 64.5819 29.7627 64.5019 29.624C64.4219 29.4853 64.3126 29.376 64.1739 29.296C64.0406 29.216 63.8806 29.16 63.6939 29.128C63.5126 29.096 63.3179 29.08 63.1099 29.08ZM76.7092 28.456V29.128H74.9652V34H74.1892V29.128H72.4452V28.456H76.7092Z" fill="white"/>
<path d="M26.5728 18.126C26.0408 18.126 25.5088 18.1073 24.9768 18.07C24.4541 18.042 23.9081 17.9673 23.3388 17.846V8.438C23.7868 8.354 24.2768 8.29333 24.8088 8.256C25.3408 8.20933 25.8354 8.186 26.2928 8.186C26.9088 8.186 27.4734 8.23267 27.9868 8.326C28.5094 8.41 28.9574 8.55933 29.3308 8.774C29.7041 8.98867 29.9934 9.27333 30.1988 9.628C30.4134 9.97333 30.5208 10.4027 30.5208 10.916C30.5208 11.6907 30.1474 12.302 29.4008 12.75C30.0168 12.9833 30.4368 13.3007 30.6608 13.702C30.8848 14.1033 30.9968 14.556 30.9968 15.06C30.9968 16.0773 30.6234 16.8427 29.8768 17.356C29.1394 17.8693 28.0381 18.126 26.5728 18.126ZM25.4668 13.772V16.278C25.6254 16.2967 25.7981 16.3107 25.9848 16.32C26.1714 16.3293 26.3768 16.334 26.6008 16.334C27.2541 16.334 27.7814 16.2407 28.1828 16.054C28.5841 15.8673 28.7848 15.522 28.7848 15.018C28.7848 14.57 28.6168 14.2527 28.2808 14.066C27.9448 13.87 27.4641 13.772 26.8388 13.772H25.4668ZM25.4668 12.106H26.5308C27.2028 12.106 27.6834 12.022 27.9728 11.854C28.2621 11.6767 28.4068 11.3967 28.4068 11.014C28.4068 10.622 28.2574 10.3467 27.9588 10.188C27.6601 10.0293 27.2214 9.95 26.6428 9.95C26.4561 9.95 26.2554 9.95467 26.0408 9.964C25.8261 9.964 25.6348 9.97333 25.4668 9.992V12.106ZM36.539 18.196C35.8577 18.196 35.2697 18.1027 34.775 17.916C34.2803 17.72 33.8697 17.454 33.543 17.118C33.2257 16.7727 32.9877 16.3667 32.829 15.9C32.6797 15.424 32.605 14.9013 32.605 14.332V8.298H34.789V14.15C34.789 14.542 34.831 14.878 34.915 15.158C35.0083 15.4287 35.1297 15.6527 35.279 15.83C35.4377 15.998 35.6243 16.1193 35.839 16.194C36.063 16.2687 36.3057 16.306 36.567 16.306C37.099 16.306 37.5283 16.1427 37.855 15.816C38.191 15.4893 38.359 14.934 38.359 14.15V8.298H40.543V14.332C40.543 14.9013 40.4637 15.424 40.305 15.9C40.1463 16.376 39.9037 16.7867 39.577 17.132C39.2503 17.468 38.835 17.7293 38.331 17.916C37.827 18.1027 37.2297 18.196 36.539 18.196ZM48.4954 8.298H50.6794V18H48.4954V13.884H44.8274V18H42.6434V8.298H44.8274V12.008H48.4954V8.298Z" fill="white"/>
</svg>
