<svg width="22" height="8" viewBox="0 0 22 8" fill="none" xmlns="http://www.w3.org/2000/svg">
<path d="M3.10125 0.992188C3.50229 0.992188 3.85906 1.02734 4.17156 1.09766C4.48667 1.16797 4.75229 1.26562 4.96844 1.39062C5.18719 1.51562 5.35385 1.66667 5.46844 1.84375C5.58302 2.01823 5.64031 2.21094 5.64031 2.42188V2.99219C5.64031 3.21615 5.59604 3.39714 5.5075 3.53516C5.42156 3.67318 5.30177 3.78385 5.14812 3.86719C5.27573 3.90365 5.39292 3.95052 5.49969 4.00781C5.60906 4.0651 5.70151 4.13542 5.77703 4.21875C5.85516 4.29948 5.91505 4.39453 5.95672 4.50391C6.00099 4.61068 6.02312 4.73438 6.02312 4.875V5.64062C6.02312 5.85156 5.9463 6.04557 5.79266 6.22266C5.63901 6.39714 5.42937 6.54818 5.16375 6.67578C4.89812 6.80339 4.58823 6.90234 4.23406 6.97266C3.8799 7.04297 3.50229 7.07812 3.10125 7.07812C2.87729 7.07812 2.64812 7.06901 2.41375 7.05078C2.17937 7.03516 1.95151 7.01302 1.73016 6.98438C1.51141 6.95573 1.30568 6.92318 1.11297 6.88672C0.92026 6.85026 0.754896 6.8125 0.616875 6.77344V1.28906C0.754896 1.25 0.92026 1.21354 1.11297 1.17969C1.30568 1.14323 1.51141 1.11198 1.73016 1.08594C1.95151 1.05729 2.17937 1.03516 2.41375 1.01953C2.64812 1.0013 2.87729 0.992188 3.10125 0.992188ZM3.07 4.40625C2.92937 4.40625 2.78875 4.40755 2.64812 4.41016C2.5075 4.41016 2.37078 4.41406 2.23797 4.42188C2.10776 4.42708 1.98276 4.4362 1.86297 4.44922C1.74318 4.46224 1.6351 4.47917 1.53875 4.5V5.98438C1.59083 6.0026 1.65724 6.02344 1.73797 6.04688C1.8213 6.07031 1.92547 6.09245 2.05047 6.11328C2.17547 6.13411 2.32521 6.15234 2.49969 6.16797C2.67417 6.18099 2.8799 6.1875 3.11687 6.1875C3.40854 6.1875 3.67026 6.16406 3.90203 6.11719C4.13641 6.07031 4.33302 6.00781 4.49187 5.92969C4.65333 5.85156 4.77703 5.76172 4.86297 5.66016C4.94891 5.55599 4.99187 5.44792 4.99187 5.33594V5C4.99187 4.8776 4.93719 4.77734 4.82781 4.69922C4.71844 4.62109 4.57391 4.5612 4.39422 4.51953C4.21453 4.47526 4.0088 4.44531 3.77703 4.42969C3.54786 4.41406 3.31219 4.40625 3.07 4.40625ZM1.53875 3.4375C1.70021 3.46875 1.8838 3.48958 2.08953 3.5C2.29786 3.51042 2.53354 3.51562 2.79656 3.51562C3.02312 3.51562 3.24839 3.50781 3.47234 3.49219C3.6963 3.47396 3.89812 3.44531 4.07781 3.40625C4.2575 3.36458 4.40333 3.3099 4.51531 3.24219C4.62729 3.17188 4.68458 3.08333 4.68719 2.97656V2.72656C4.68719 2.61458 4.65984 2.50781 4.60516 2.40625C4.55307 2.30208 4.46453 2.21094 4.33953 2.13281C4.21714 2.05469 4.05568 1.99219 3.85516 1.94531C3.65464 1.89844 3.40854 1.875 3.11687 1.875C2.8799 1.875 2.67417 1.88281 2.49969 1.89844C2.32521 1.91146 2.17547 1.92839 2.05047 1.94922C1.92547 1.97005 1.8213 1.99219 1.73797 2.01562C1.65724 2.03906 1.59083 2.0599 1.53875 2.07812V3.4375ZM8.83531 5.40625C8.83531 5.52083 8.87828 5.6276 8.96422 5.72656C9.05276 5.82552 9.17646 5.91276 9.33531 5.98828C9.49677 6.0612 9.68948 6.11979 9.91344 6.16406C10.14 6.20573 10.3926 6.22656 10.6713 6.22656C10.9551 6.22656 11.2103 6.20443 11.4369 6.16016C11.6634 6.11328 11.8548 6.05208 12.0111 5.97656C12.1699 5.90104 12.291 5.8138 12.3744 5.71484C12.4577 5.61589 12.4994 5.51302 12.4994 5.40625V1.14062C12.7233 1.15104 12.9343 1.16667 13.1322 1.1875C13.3301 1.20573 13.5059 1.22526 13.6595 1.24609C13.8366 1.26953 14.002 1.29427 14.1556 1.32031V2.32031C14.0931 2.29948 14.0033 2.27474 13.8861 2.24609C13.7689 2.21484 13.64 2.1875 13.4994 2.16406V5.69531C13.4994 5.90104 13.4239 6.08854 13.2728 6.25781C13.1244 6.42708 12.9213 6.57292 12.6634 6.69531C12.4082 6.8151 12.1088 6.90885 11.765 6.97656C11.4213 7.04427 11.0567 7.07812 10.6713 7.07812C10.2832 7.07812 9.91734 7.04427 9.57359 6.97656C9.22984 6.90885 8.92906 6.8151 8.67125 6.69531C8.41344 6.57292 8.20901 6.42708 8.05797 6.25781C7.90953 6.08854 7.83531 5.90104 7.83531 5.69531V2.16406C7.69469 2.19271 7.56448 2.22135 7.44469 2.25C7.3275 2.27604 7.23896 2.29948 7.17906 2.32031V1.32031C7.3275 1.29427 7.49156 1.26953 7.67125 1.24609C7.82229 1.22526 7.99807 1.20573 8.19859 1.1875C8.39911 1.16667 8.61135 1.15104 8.83531 1.14062V5.40625ZM17.2569 3.57031H19.8819V1.11719C20.1058 1.125 20.3168 1.13802 20.5147 1.15625C20.7126 1.17448 20.8884 1.19401 21.042 1.21484C21.2191 1.23828 21.3845 1.26302 21.5381 1.28906V2.28906C21.4366 2.25781 21.3246 2.22917 21.2022 2.20312C21.0798 2.17448 20.9522 2.14844 20.8194 2.125V5.99219C21.1058 5.94531 21.3454 5.89062 21.5381 5.82812V6.82031C21.3506 6.85156 21.1787 6.8776 21.0225 6.89844C20.8662 6.91927 20.7217 6.9362 20.5889 6.94922C20.4561 6.96224 20.3311 6.97266 20.2139 6.98047C20.0993 6.98828 19.9886 6.99479 19.8819 7V4.51562H17.2569V7C17.1501 6.99479 17.0381 6.98828 16.9209 6.98047C16.8064 6.97266 16.6827 6.96224 16.5498 6.94922C16.417 6.9362 16.2725 6.91927 16.1162 6.89844C15.96 6.8776 15.7881 6.85156 15.6006 6.82031V5.82812C15.7022 5.85938 15.8116 5.88932 15.9287 5.91797C16.0485 5.94401 16.1787 5.96875 16.3194 5.99219V2.125C16.0485 2.17188 15.809 2.22656 15.6006 2.28906V1.28906C15.7491 1.26302 15.9131 1.23828 16.0928 1.21484C16.2439 1.19401 16.4196 1.17448 16.6202 1.15625C16.8207 1.13802 17.0329 1.125 17.2569 1.11719V3.57031Z" fill="#3FB158"/>
</svg>
