<svg width="131" height="79" viewBox="0 0 131 79" fill="none" xmlns="http://www.w3.org/2000/svg">
<g filter="url(#filter0_i_24_12)">
<path d="M30.3265 13.7158C32.0811 13.7158 33.642 13.8696 35.0092 14.1772C36.3877 14.4849 37.5498 14.9121 38.4955 15.459C39.4525 16.0059 40.1817 16.6667 40.683 17.4414C41.1843 18.2048 41.4349 19.0479 41.4349 19.9707V22.4658C41.4349 23.4456 41.2413 24.2375 40.8539 24.8413C40.4779 25.4451 39.9538 25.9294 39.2816 26.2939C39.8399 26.4535 40.3526 26.6585 40.8197 26.9092C41.2982 27.1598 41.7027 27.4674 42.0331 27.832C42.3749 28.1852 42.6369 28.6011 42.8192 29.0796C43.0129 29.5467 43.1097 30.0879 43.1097 30.7031V34.0527C43.1097 34.9756 42.7736 35.8244 42.1014 36.5991C41.4292 37.3625 40.5121 38.0233 39.35 38.5815C38.1879 39.1398 36.8321 39.5728 35.2826 39.8804C33.7331 40.188 32.0811 40.3418 30.3265 40.3418C29.3467 40.3418 28.3441 40.3019 27.3187 40.2222C26.2933 40.1538 25.2964 40.057 24.328 39.9316C23.371 39.8063 22.4709 39.6639 21.6278 39.5044C20.7847 39.3449 20.0612 39.1797 19.4574 39.0088V15.0146C20.0612 14.8438 20.7847 14.6842 21.6278 14.5361C22.4709 14.3766 23.371 14.2399 24.328 14.126C25.2964 14.0007 26.2933 13.9038 27.3187 13.8354C28.3441 13.7557 29.3467 13.7158 30.3265 13.7158ZM30.1898 28.6523C29.5746 28.6523 28.9594 28.658 28.3441 28.6694C27.7289 28.6694 27.1307 28.6865 26.5497 28.7207C25.98 28.7435 25.4331 28.7834 24.9091 28.8403C24.385 28.8973 23.9122 28.9714 23.4906 29.0625V35.5566C23.7185 35.6364 24.009 35.7275 24.3622 35.8301C24.7268 35.9326 25.1825 36.0295 25.7294 36.1206C26.2762 36.2118 26.9314 36.2915 27.6947 36.3599C28.458 36.4168 29.3581 36.4453 30.3949 36.4453C31.6709 36.4453 32.816 36.3428 33.83 36.1377C34.8553 35.9326 35.7155 35.6592 36.4105 35.3174C37.1169 34.9756 37.6581 34.5825 38.0341 34.1382C38.41 33.6825 38.598 33.2096 38.598 32.7197V31.25C38.598 30.7145 38.3588 30.2759 37.8802 29.9341C37.4017 29.5923 36.7694 29.3302 35.9833 29.1479C35.1971 28.9543 34.2971 28.8232 33.2831 28.7549C32.2805 28.6865 31.2494 28.6523 30.1898 28.6523ZM23.4906 24.4141C24.197 24.5508 25.0002 24.6419 25.9003 24.6875C26.8117 24.7331 27.8428 24.7559 28.9935 24.7559C29.9847 24.7559 30.9703 24.7217 31.9501 24.6533C32.9299 24.5736 33.8129 24.4482 34.599 24.2773C35.3851 24.0951 36.0232 23.8558 36.5131 23.5596C37.003 23.252 37.2536 22.8646 37.265 22.3975V21.3037C37.265 20.8138 37.1454 20.3467 36.9061 19.9023C36.6783 19.4466 36.2909 19.0479 35.744 18.7061C35.2085 18.3643 34.5022 18.0908 33.6249 17.8857C32.7476 17.6807 31.6709 17.5781 30.3949 17.5781C29.3581 17.5781 28.458 17.6123 27.6947 17.6807C26.9314 17.7376 26.2762 17.8117 25.7294 17.9028C25.1825 17.994 24.7268 18.0908 24.3622 18.1934C24.009 18.2959 23.7185 18.387 23.4906 18.4668V24.4141ZM55.4131 33.0273C55.4131 33.5286 55.6011 33.9958 55.977 34.4287C56.3644 34.8617 56.9056 35.2433 57.6006 35.5737C58.3069 35.8927 59.15 36.1491 60.1299 36.3428C61.1211 36.5251 62.2262 36.6162 63.4453 36.6162C64.6872 36.6162 65.8037 36.5194 66.7949 36.3257C67.7861 36.1206 68.6235 35.8529 69.3071 35.5225C70.0021 35.1921 70.5319 34.8104 70.8965 34.3774C71.261 33.9445 71.4433 33.4945 71.4433 33.0273V14.3652C72.4232 14.4108 73.346 14.4792 74.2119 14.5703C75.0778 14.6501 75.8468 14.7355 76.519 14.8267C77.2938 14.9292 78.0172 15.0374 78.6894 15.1514V19.5264C78.416 19.4352 78.0229 19.327 77.5102 19.2017C76.9975 19.0649 76.4336 18.9453 75.8183 18.8428V34.292C75.8183 35.1921 75.4879 36.0124 74.8271 36.7529C74.1777 37.4935 73.289 38.1315 72.1611 38.667C71.0446 39.1911 69.7344 39.6012 68.2304 39.8975C66.7265 40.1937 65.1315 40.3418 63.4453 40.3418C61.7477 40.3418 60.1469 40.1937 58.643 39.8975C57.1391 39.6012 55.8232 39.1911 54.6953 38.667C53.5674 38.1315 52.673 37.4935 52.0122 36.7529C51.3628 36.0124 51.0381 35.1921 51.0381 34.292V18.8428C50.4228 18.9681 49.8532 19.0934 49.3291 19.2188C48.8164 19.3327 48.429 19.4352 48.167 19.5264V15.1514C48.8164 15.0374 49.5342 14.9292 50.3203 14.8267C50.9811 14.7355 51.7501 14.6501 52.6274 14.5703C53.5047 14.4792 54.4332 14.4108 55.4131 14.3652V33.0273ZM92.2574 24.9951H103.742V14.2627C104.722 14.2969 105.644 14.3538 106.51 14.4336C107.376 14.5133 108.145 14.5988 108.817 14.6899C109.592 14.7925 110.316 14.9007 110.988 15.0146V19.3896C110.544 19.2529 110.054 19.1276 109.518 19.0137C108.983 18.8883 108.424 18.7744 107.843 18.6719V35.5908C109.097 35.3857 110.145 35.1465 110.988 34.873V39.2139C110.168 39.3506 109.416 39.4645 108.732 39.5557C108.048 39.6468 107.416 39.7209 106.835 39.7778C106.254 39.8348 105.707 39.8804 105.194 39.9146C104.693 39.9487 104.209 39.9772 103.742 40V29.1309H92.2574V40C91.7903 39.9772 91.3004 39.9487 90.7877 39.9146C90.2864 39.8804 89.7452 39.8348 89.1641 39.7778C88.5831 39.7209 87.9508 39.6468 87.2672 39.5557C86.5836 39.4645 85.8316 39.3506 85.0113 39.2139V34.873C85.4556 35.0098 85.9342 35.1408 86.4469 35.2661C86.9709 35.38 87.5406 35.4883 88.1558 35.5908V18.6719C86.9709 18.877 85.9228 19.1162 85.0113 19.3896V15.0146C85.6607 14.9007 86.3785 14.7925 87.1646 14.6899C87.8254 14.5988 88.5945 14.5133 89.4718 14.4336C90.349 14.3538 91.2776 14.2969 92.2574 14.2627V24.9951Z" fill="white"/>
<path d="M39.1545 55.6039C40.1727 55.6039 41.1573 55.6676 42.1081 55.7949C43.0664 55.9147 43.9237 56.1243 44.6799 56.4238C45.4436 56.7158 46.0687 57.1126 46.5554 57.6142C47.0495 58.1158 47.3378 58.741 47.4201 59.4897L44.5002 60.2983C44.5002 59.8491 44.3467 59.4822 44.0397 59.1977C43.7403 58.9057 43.3397 58.6773 42.8381 58.5126C42.3439 58.3404 41.7749 58.2206 41.1311 58.1533C40.4947 58.0859 39.8358 58.0522 39.1545 58.0522C38.4881 58.0522 37.833 58.0821 37.1892 58.142C36.5453 58.2019 35.965 58.3142 35.4484 58.4789C34.9393 58.6437 34.5275 58.872 34.2131 59.164C33.8986 59.456 33.7414 59.8341 33.7414 60.2983V62.9711H47.4201V68.7885C47.4201 69.2901 47.3078 69.7394 47.0832 70.1362C46.8661 70.5255 46.5629 70.8661 46.1735 71.1581C45.7917 71.4426 45.335 71.686 44.8034 71.8881C44.2793 72.0828 43.7103 72.24 43.0964 72.3598C42.4899 72.4796 41.8498 72.5657 41.176 72.6181C40.5021 72.6705 39.8283 72.6967 39.1545 72.6967C38.4657 72.6967 37.7881 72.6705 37.1218 72.6181C36.4554 72.5657 35.8228 72.4796 35.2238 72.3598C34.6249 72.24 34.0671 72.0828 33.5505 71.8881C33.0414 71.686 32.5922 71.4426 32.2028 71.1581C31.8135 70.8661 31.4991 70.5255 31.2595 70.1362C31.0199 69.7468 30.8739 69.2976 30.8215 68.7885L33.7414 67.9799C33.7414 68.4441 33.8986 68.8222 34.2131 69.1142C34.5275 69.4062 34.9393 69.6345 35.4484 69.7993C35.965 69.964 36.5453 70.0763 37.1892 70.1362C37.833 70.1961 38.4881 70.226 39.1545 70.226C39.8358 70.226 40.4947 70.1961 41.1311 70.1362C41.7749 70.0688 42.3439 69.9527 42.8381 69.788C43.3397 69.6158 43.7403 69.3837 44.0397 69.0917C44.3467 68.7997 44.5002 68.4291 44.5002 67.9799V65.2397H30.8215V59.4897C30.8215 58.9881 30.93 58.5463 31.1472 58.1645C31.3718 57.7752 31.675 57.4383 32.0568 57.1537C32.4462 56.8618 32.9066 56.6184 33.4382 56.4238C33.9698 56.2216 34.5425 56.0606 35.1564 55.9409C35.7779 55.8211 36.4255 55.735 37.0993 55.6826C37.7806 55.6301 38.4657 55.6039 39.1545 55.6039ZM60.5229 68.1371C60.5229 68.4666 60.6465 68.7735 60.8935 69.058C61.1481 69.3425 61.5037 69.5934 61.9604 69.8105C62.4246 70.0201 62.9787 70.1886 63.6225 70.3159C64.2739 70.4356 65.0001 70.4955 65.8012 70.4955C66.6173 70.4955 67.3511 70.4319 68.0024 70.3046C68.6538 70.1699 69.2041 69.9939 69.6533 69.7768C70.11 69.5597 70.4581 69.3089 70.6977 69.0244C70.9373 68.7398 71.0571 68.4441 71.0571 68.1371V55.8735C71.701 55.9034 72.3074 55.9483 72.8764 56.0082C73.4455 56.0606 73.9508 56.1168 74.3926 56.1767C74.9017 56.2441 75.3771 56.3152 75.8188 56.3901V59.2651C75.6391 59.2052 75.3808 59.1341 75.0439 59.0517C74.707 58.9619 74.3364 58.8832 73.9321 58.8159V68.9682C73.9321 69.5597 73.715 70.0987 73.2807 70.5854C72.854 71.072 72.27 71.4913 71.5288 71.8432C70.7951 72.1876 69.9341 72.4571 68.9458 72.6518C67.9575 72.8465 66.9093 72.9438 65.8012 72.9438C64.6857 72.9438 63.6338 72.8465 62.6455 72.6518C61.6572 72.4571 60.7925 72.1876 60.0512 71.8432C59.31 71.4913 58.7223 71.072 58.2881 70.5854C57.8613 70.0987 57.6479 69.5597 57.6479 68.9682V58.8159C57.2436 58.8982 56.8693 58.9806 56.5249 59.0629C56.188 59.1378 55.9334 59.2052 55.7612 59.2651V56.3901C56.188 56.3152 56.6596 56.2441 57.1762 56.1767C57.6105 56.1168 58.1159 56.0606 58.6924 56.0082C59.2689 55.9483 59.879 55.9034 60.5229 55.8735V68.1371ZM90.7185 55.559C91.4672 55.559 92.2309 55.5965 93.0095 55.6713C93.7957 55.7387 94.5593 55.8622 95.3005 56.0419C96.0417 56.2141 96.738 56.4575 97.3894 56.7719C98.0408 57.0789 98.6098 57.4719 99.0964 57.9511C99.5906 58.4228 99.9799 58.9918 100.264 59.6581C100.549 60.317 100.691 61.0919 100.691 61.9828C100.691 62.8888 100.568 63.6861 100.321 64.3749C100.081 65.0637 99.7403 65.6627 99.2986 66.1718C98.8643 66.6809 98.344 67.1077 97.7375 67.4521C97.1386 67.789 96.4797 68.0623 95.761 68.2719C95.0422 68.4741 94.2786 68.6201 93.47 68.7099C92.6614 68.7923 91.8341 68.8334 90.988 68.8334C90.4565 68.8334 89.9286 68.8185 89.4045 68.7885C88.8805 68.7586 88.3526 68.7211 87.821 68.6762V72.6967H85.0359V56.2104C85.2006 56.158 85.4626 56.0943 85.822 56.0195C86.1889 55.9446 86.6194 55.8735 87.1135 55.8061C87.6152 55.7387 88.1729 55.6826 88.7869 55.6376C89.4008 55.5852 90.0447 55.559 90.7185 55.559ZM91.5271 58.0297C91.033 58.0297 90.5613 58.0522 90.1121 58.0971C89.6628 58.1345 89.2698 58.1795 88.9329 58.2319C88.5286 58.2918 88.158 58.3592 87.821 58.434V66.1157C88.0606 66.1681 88.3264 66.213 88.6184 66.2504C88.8655 66.2879 89.1537 66.3216 89.4832 66.3515C89.8126 66.374 90.1645 66.3852 90.5388 66.3852C91.0255 66.3852 91.5383 66.374 92.0774 66.3515C92.6239 66.3216 93.163 66.2579 93.6946 66.1606C94.2336 66.0633 94.7428 65.921 95.2219 65.7338C95.7086 65.5392 96.1353 65.2846 96.5022 64.9702C96.8765 64.6482 97.1723 64.2514 97.3894 63.7797C97.614 63.308 97.7263 62.739 97.7263 62.0727C97.7263 61.5187 97.6365 61.032 97.4568 60.6127C97.2771 60.1935 97.0338 59.8341 96.7268 59.5346C96.4198 59.2351 96.0605 58.9881 95.6487 58.7934C95.2444 58.5987 94.8101 58.4453 94.3459 58.3329C93.8892 58.2206 93.4176 58.142 92.9309 58.0971C92.4517 58.0522 91.9838 58.0297 91.5271 58.0297Z" fill="white" fill-opacity="0.82"/>
</g>
<defs>
<filter id="filter0_i_24_12" x="19.4574" y="13.7158" width="91.5305" height="63.228" filterUnits="userSpaceOnUse" color-interpolation-filters="sRGB">
<feFlood flood-opacity="0" result="BackgroundImageFix"/>
<feBlend mode="normal" in="SourceGraphic" in2="BackgroundImageFix" result="shape"/>
<feColorMatrix in="SourceAlpha" type="matrix" values="0 0 0 0 0 0 0 0 0 0 0 0 0 0 0 0 0 0 127 0" result="hardAlpha"/>
<feOffset dy="4"/>
<feGaussianBlur stdDeviation="2"/>
<feComposite in2="hardAlpha" operator="arithmetic" k2="-1" k3="1"/>
<feColorMatrix type="matrix" values="0 0 0 0 0 0 0 0 0 0 0 0 0 0 0 0 0 0 0.25 0"/>
<feBlend mode="normal" in2="shape" result="effect1_innerShadow_24_12"/>
</filter>
</defs>
</svg>
