<svg width="136" height="42" viewBox="0 0 136 42" fill="none" xmlns="http://www.w3.org/2000/svg">
<path d="M2.964 37.172C4.18 37.172 4.788 36.756 4.788 35.924C4.788 35.668 4.732 35.452 4.62 35.276C4.516 35.092 4.372 34.936 4.188 34.808C4.004 34.672 3.792 34.556 3.552 34.46C3.32 34.364 3.072 34.268 2.808 34.172C2.504 34.068 2.216 33.952 1.944 33.824C1.672 33.688 1.436 33.532 1.236 33.356C1.036 33.172 0.876 32.956 0.756 32.708C0.644 32.46 0.588 32.16 0.588 31.808C0.588 31.08 0.836 30.512 1.332 30.104C1.828 29.696 2.512 29.492 3.384 29.492C3.888 29.492 4.344 29.548 4.752 29.66C5.168 29.764 5.472 29.88 5.664 30.008L5.292 30.956C5.124 30.852 4.872 30.752 4.536 30.656C4.208 30.552 3.824 30.5 3.384 30.5C3.16 30.5 2.952 30.524 2.76 30.572C2.568 30.62 2.4 30.692 2.256 30.788C2.112 30.884 1.996 31.008 1.908 31.16C1.828 31.304 1.788 31.476 1.788 31.676C1.788 31.9 1.832 32.088 1.92 32.24C2.008 32.392 2.132 32.528 2.292 32.648C2.452 32.76 2.636 32.864 2.844 32.96C3.06 33.056 3.296 33.152 3.552 33.248C3.912 33.392 4.24 33.536 4.536 33.68C4.84 33.824 5.1 33.996 5.316 34.196C5.54 34.396 5.712 34.636 5.832 34.916C5.952 35.188 6.012 35.52 6.012 35.912C6.012 36.64 5.744 37.2 5.208 37.592C4.68 37.984 3.932 38.18 2.964 38.18C2.636 38.18 2.332 38.156 2.052 38.108C1.78 38.068 1.536 38.02 1.32 37.964C1.104 37.9 0.916 37.836 0.756 37.772C0.604 37.7 0.484 37.64 0.396 37.592L0.744 36.632C0.928 36.736 1.208 36.852 1.584 36.98C1.96 37.108 2.42 37.172 2.964 37.172ZM24.2547 38.18C23.7107 38.18 23.2387 38.096 22.8387 37.928C22.4387 37.76 22.1107 37.532 21.8547 37.244C21.5987 36.948 21.4067 36.6 21.2787 36.2C21.1587 35.8 21.0987 35.368 21.0987 34.904V29.684H22.2627V34.772C22.2627 35.604 22.4467 36.208 22.8147 36.584C23.1827 36.96 23.6627 37.148 24.2547 37.148C24.5507 37.148 24.8187 37.104 25.0587 37.016C25.3067 36.92 25.5187 36.776 25.6947 36.584C25.8707 36.392 26.0067 36.148 26.1027 35.852C26.1987 35.548 26.2467 35.188 26.2467 34.772V29.684H27.4107V34.904C27.4107 35.368 27.3467 35.8 27.2187 36.2C27.0987 36.6 26.9067 36.948 26.6427 37.244C26.3867 37.532 26.0587 37.76 25.6587 37.928C25.2667 38.096 24.7987 38.18 24.2547 38.18ZM45.3684 29.6C46.5364 29.6 47.4324 29.824 48.0564 30.272C48.6884 30.712 49.0044 31.372 49.0044 32.252C49.0044 32.732 48.9164 33.144 48.7404 33.488C48.5724 33.824 48.3244 34.1 47.9964 34.316C47.6764 34.524 47.2844 34.676 46.8204 34.772C46.3564 34.868 45.8324 34.916 45.2484 34.916H44.3244V38H43.1604V29.804C43.4884 29.724 43.8524 29.672 44.2524 29.648C44.6604 29.616 45.0324 29.6 45.3684 29.6ZM45.4644 30.62C44.9684 30.62 44.5884 30.632 44.3244 30.656V33.92H45.2004C45.6004 33.92 45.9604 33.896 46.2804 33.848C46.6004 33.792 46.8684 33.704 47.0844 33.584C47.3084 33.456 47.4804 33.284 47.6004 33.068C47.7204 32.852 47.7804 32.576 47.7804 32.24C47.7804 31.92 47.7164 31.656 47.5884 31.448C47.4684 31.24 47.3004 31.076 47.0844 30.956C46.8764 30.828 46.6324 30.74 46.3524 30.692C46.0724 30.644 45.7764 30.62 45.4644 30.62ZM66.4092 29.6C67.5772 29.6 68.4732 29.824 69.0972 30.272C69.7292 30.712 70.0452 31.372 70.0452 32.252C70.0452 32.732 69.9572 33.144 69.7812 33.488C69.6132 33.824 69.3652 34.1 69.0372 34.316C68.7172 34.524 68.3252 34.676 67.8612 34.772C67.3972 34.868 66.8732 34.916 66.2892 34.916H65.3652V38H64.2012V29.804C64.5292 29.724 64.8932 29.672 65.2932 29.648C65.7012 29.616 66.0732 29.6 66.4092 29.6ZM66.5052 30.62C66.0092 30.62 65.6292 30.632 65.3652 30.656V33.92H66.2412C66.6412 33.92 67.0012 33.896 67.3212 33.848C67.6412 33.792 67.9092 33.704 68.1252 33.584C68.3492 33.456 68.5212 33.284 68.6412 33.068C68.7612 32.852 68.8212 32.576 68.8212 32.24C68.8212 31.92 68.7572 31.656 68.6292 31.448C68.5092 31.24 68.3412 31.076 68.1252 30.956C67.9172 30.828 67.6732 30.74 67.3932 30.692C67.1132 30.644 66.8172 30.62 66.5052 30.62ZM84.906 33.836C84.906 33.124 85.01 32.496 85.218 31.952C85.434 31.408 85.722 30.956 86.082 30.596C86.45 30.228 86.874 29.952 87.354 29.768C87.842 29.584 88.358 29.492 88.902 29.492C89.438 29.492 89.942 29.584 90.414 29.768C90.894 29.952 91.314 30.228 91.674 30.596C92.034 30.956 92.318 31.408 92.526 31.952C92.742 32.496 92.85 33.124 92.85 33.836C92.85 34.548 92.742 35.176 92.526 35.72C92.318 36.264 92.034 36.72 91.674 37.088C91.314 37.448 90.894 37.72 90.414 37.904C89.942 38.088 89.438 38.18 88.902 38.18C88.358 38.18 87.842 38.088 87.354 37.904C86.874 37.72 86.45 37.448 86.082 37.088C85.722 36.72 85.434 36.264 85.218 35.72C85.01 35.176 84.906 34.548 84.906 33.836ZM86.13 33.836C86.13 34.34 86.194 34.8 86.322 35.216C86.45 35.624 86.63 35.972 86.862 36.26C87.102 36.548 87.39 36.772 87.726 36.932C88.07 37.084 88.454 37.16 88.878 37.16C89.302 37.16 89.682 37.084 90.018 36.932C90.354 36.772 90.638 36.548 90.87 36.26C91.11 35.972 91.294 35.624 91.422 35.216C91.55 34.8 91.614 34.34 91.614 33.836C91.614 33.332 91.55 32.876 91.422 32.468C91.294 32.052 91.11 31.7 90.87 31.412C90.638 31.124 90.354 30.904 90.018 30.752C89.682 30.592 89.302 30.512 88.878 30.512C88.454 30.512 88.07 30.592 87.726 30.752C87.39 30.904 87.102 31.124 86.862 31.412C86.63 31.7 86.45 32.052 86.322 32.468C86.194 32.876 86.13 33.332 86.13 33.836ZM112.39 34.52C112.518 34.68 112.678 34.892 112.87 35.156C113.07 35.412 113.274 35.7 113.482 36.02C113.69 36.332 113.894 36.66 114.094 37.004C114.302 37.348 114.478 37.68 114.622 38H113.35C113.19 37.696 113.014 37.388 112.822 37.076C112.638 36.764 112.45 36.468 112.258 36.188C112.066 35.9 111.874 35.632 111.682 35.384C111.498 35.136 111.33 34.92 111.178 34.736C111.074 34.744 110.966 34.748 110.854 34.748C110.75 34.748 110.642 34.748 110.53 34.748H109.486V38H108.322V29.804C108.65 29.724 109.014 29.672 109.414 29.648C109.822 29.616 110.194 29.6 110.53 29.6C111.698 29.6 112.586 29.82 113.194 30.26C113.81 30.7 114.118 31.356 114.118 32.228C114.118 32.78 113.97 33.252 113.674 33.644C113.386 34.036 112.958 34.328 112.39 34.52ZM110.626 30.62C110.13 30.62 109.75 30.632 109.486 30.656V33.788H110.314C110.714 33.788 111.074 33.768 111.394 33.728C111.714 33.688 111.982 33.612 112.198 33.5C112.422 33.388 112.594 33.232 112.714 33.032C112.834 32.824 112.894 32.552 112.894 32.216C112.894 31.904 112.834 31.644 112.714 31.436C112.594 31.228 112.43 31.064 112.222 30.944C112.022 30.824 111.782 30.74 111.502 30.692C111.23 30.644 110.938 30.62 110.626 30.62ZM135.165 29.684V30.692H132.549V38H131.385V30.692H128.769V29.684H135.165Z" fill="white"/>
<path d="M54.2669 21.18C53.5069 21.18 52.7469 21.1533 51.9869 21.1C51.2402 21.06 50.4602 20.9533 49.6469 20.78V7.34C50.2869 7.22 50.9869 7.13333 51.7469 7.08C52.5069 7.01333 53.2135 6.98 53.8669 6.98C54.7469 6.98 55.5535 7.04667 56.2869 7.18C57.0335 7.3 57.6735 7.51333 58.2069 7.82C58.7402 8.12667 59.1535 8.53333 59.4469 9.04C59.7535 9.53333 59.9069 10.1467 59.9069 10.88C59.9069 11.9867 59.3735 12.86 58.3069 13.5C59.1869 13.8333 59.7869 14.2867 60.1069 14.86C60.4269 15.4333 60.5869 16.08 60.5869 16.8C60.5869 18.2533 60.0535 19.3467 58.9869 20.08C57.9335 20.8133 56.3602 21.18 54.2669 21.18ZM52.6869 14.96V18.54C52.9135 18.5667 53.1602 18.5867 53.4269 18.6C53.6935 18.6133 53.9869 18.62 54.3069 18.62C55.2402 18.62 55.9935 18.4867 56.5669 18.22C57.1402 17.9533 57.4269 17.46 57.4269 16.74C57.4269 16.1 57.1869 15.6467 56.7069 15.38C56.2269 15.1 55.5402 14.96 54.6469 14.96H52.6869ZM52.6869 12.58H54.2069C55.1669 12.58 55.8535 12.46 56.2669 12.22C56.6802 11.9667 56.8869 11.5667 56.8869 11.02C56.8869 10.46 56.6735 10.0667 56.2469 9.84C55.8202 9.61333 55.1935 9.5 54.3669 9.5C54.1002 9.5 53.8135 9.50667 53.5069 9.52C53.2002 9.52 52.9269 9.53333 52.6869 9.56V12.58ZM68.5044 21.28C67.531 21.28 66.691 21.1467 65.9844 20.88C65.2777 20.6 64.691 20.22 64.2244 19.74C63.771 19.2467 63.431 18.6667 63.2044 18C62.991 17.32 62.8844 16.5733 62.8844 15.76V7.14H66.0044V15.5C66.0044 16.06 66.0644 16.54 66.1844 16.94C66.3177 17.3267 66.491 17.6467 66.7044 17.9C66.931 18.14 67.1977 18.3133 67.5044 18.42C67.8244 18.5267 68.171 18.58 68.5444 18.58C69.3044 18.58 69.9177 18.3467 70.3844 17.88C70.8644 17.4133 71.1044 16.62 71.1044 15.5V7.14H74.2244V15.76C74.2244 16.5733 74.111 17.32 73.8844 18C73.6577 18.68 73.311 19.2667 72.8444 19.76C72.3777 20.24 71.7844 20.6133 71.0644 20.88C70.3444 21.1467 69.491 21.28 68.5044 21.28ZM85.585 7.14H88.705V21H85.585V15.12H80.345V21H77.225V7.14H80.345V12.44H85.585V7.14Z" fill="white"/>
</svg>
